<svg xmlns="http://www.w3.org/2000/svg" xmlns:xlink="http://www.w3.org/1999/xlink" viewBox="0 0 113 33" fill="#fff" fill-rule="evenodd" stroke="#000" stroke-linecap="round" stroke-linejoin="round"><use xlink:href="#A" x=".5" y=".5"/><symbol id="A" overflow="visible"><g stroke="none" fill="#035bda"><path d="M56.766 14.995h-1.792V7.998a20.51 20.51 0 0 1 .078-2.074 3.82 3.82 0 0 1-.313.998l-3.282 8.138h-1.25l-3.288-8.056-.313-1.085c.078.46.078 1.152.078 2.152v7.006h-1.72V4.237h2.58l2.893 7.223.468 1.23c.118-.448.275-.885.468-1.306l2.97-7.223h2.5zm3.36-9.375a1.01 1.01 0 0 1-.781-.307.83.83 0 0 1-.313-.691c-.03-.27.1-.535.313-.69a1.4 1.4 0 0 1 .781-.307 1.01 1.01 0 0 1 .781.307.83.83 0 0 1 .313.691c.03.27-.1.535-.313.69a1.01 1.01 0 0 1-.781.307zm.86 9.375h-1.8v-7.76h1.798zm8.047-.305c-.626.383-1.407.543-2.266.543-1.172 0-2.1-.383-2.814-1.076s-1.085-1.613-1.085-2.767c0-1.306.39-2.306 1.172-3.074s1.798-1.152 3.125-1.152c.645 0 1.282.13 1.875.383v1.6a3.13 3.13 0 0 0-1.72-.615c-.78 0-1.407.23-1.875.768-.48.548-.733 1.26-.703 1.99 0 .768.235 1.46.703 1.92a2.5 2.5 0 0 0 1.798.691 2.78 2.78 0 0 0 1.798-.691v1.47zm6.33-5.762a1.69 1.69 0 0 0-.939-.23c-.543 0-.94.23-1.33.69s-.543 1.085-.543 1.92v3.69h-1.798V7.235h1.798v1.613c.148-.493.416-.942.78-1.306a1.79 1.79 0 0 1 1.25-.461c.243-.003.484.05.703.154zm4.764 6.304c-1.25 0-2.188-.383-2.893-1.076s-1.085-1.69-1.085-2.84c0-1.306.39-2.306 1.172-3.074s1.798-1.085 3.047-1.085 2.188.383 2.893 1.085 1.007 1.685 1.007 2.99c.033 1.1-.355 2.172-1.085 2.996a4.83 4.83 0 0 1-3.057 1.007zm.078-6.762q-1.054 0-1.64.69c-.39.46-.626 1.152-.626 1.99s.235 1.46.626 1.92.94.69 1.64.69 1.25-.23 1.64-.69.543-1.076.543-1.99c0-.845-.156-1.535-.543-1.99a2.26 2.26 0 0 0-1.64-.615zm5.315 6.295v-1.617c.703.46 1.407.768 2.188.768q1.64 0 1.64-.922a1.08 1.08 0 0 0-.156-.461.78.78 0 0 0-.39-.307c-.175-.1-.356-.167-.543-.23l-.703-.23a9.04 9.04 0 0 1-.86-.383 4.33 4.33 0 0 1-.626-.461 1.67 1.67 0 0 1-.391-.615 2.24 2.24 0 0 1-.156-.768 2.1 2.1 0 0 1 .235-.998 1.52 1.52 0 0 1 .703-.691c.313-.23.626-.307 1.016-.46a6.09 6.09 0 0 1 1.172-.154 5.22 5.22 0 0 1 1.953.307v1.54c-.552-.375-1.21-.565-1.875-.543a1.55 1.55 0 0 0-.626.076c-.156.076-.313.076-.468.153a.61.61 0 0 0-.313.307c-.063.118-.1.25-.078.383a.96.96 0 0 0 .078.461.6.6 0 0 0 .313.307c.175.1.356.167.543.23.235.076.39.153.703.23a4.83 4.83 0 0 0 .935.383c.313.076.468.307.703.46a4.27 4.27 0 0 1 .468.615 2.7 2.7 0 0 1 .156.845c0 .383-.078.768-.313.998a2 2 0 0 1-.702.698c-.349.181-.712.335-1.085.461a5.08 5.08 0 0 1-3.525-.385zm10.865.467c-1.25 0-2.188-.383-2.893-1.076s-1.085-1.69-1.085-2.84c0-1.306.39-2.306 1.172-3.074s1.798-1.085 3.047-1.085 2.188.383 2.893 1.085 1.016 1.69 1.016 2.996c.033 1.1-.355 2.172-1.085 2.996a4.98 4.98 0 0 1-3.074 1zm.078-6.762q-1.054 0-1.64.69c-.39.46-.626 1.152-.626 1.99s.235 1.46.626 1.92.94.69 1.64.69 1.25-.23 1.64-.69.543-1.076.543-1.99c0-.845-.156-1.535-.543-1.99a2.26 2.26 0 0 0-1.644-.628zm10.23-3.463c-.26-.156-.557-.236-.86-.23-.86 0-1.33.46-1.33 1.46v1.077h1.798v1.381h-1.798v6.382h-1.8V8.693h-1.33V7.31h1.33V6.08c0-.845.235-1.46.78-1.92.867-.665 2.004-.868 3.047-.543V5h.15zm5.16 9.912q-.468.23-1.407.23c-1.562 0-2.266-.69-2.266-2.152V8.619h-1.33V7.235h1.33v-1.77l1.798-.46v2.306h1.875v1.384h-1.875v3.848a1.72 1.72 0 0 0 .235.998c.156.23.468.307.86.307a1.33 1.33 0 0 0 .779-.239v1.306zM55.916 30.951h-2.033l-1.016-2.765h-4.376l-.94 2.767h-2.03l4.14-10.834h2.027zm-3.517-4.226l-1.562-4.302a4.82 4.82 0 0 1-.156-.691 4.83 4.83 0 0 1-.156.691l-1.485 4.302zm10.637-2.77l-4.22 5.606h4.22v1.383h-6.727v-.678l4.378-5.69h-3.906v-1.383h6.33v.763zm8.43 6.997h-1.798v-1.228a2.62 2.62 0 0 1-2.423 1.383c-1.875 0-2.814-1.076-2.814-3.304v-4.612h1.798v4.456q0 2.074 1.64 2.074a1.73 1.73 0 0 0 1.329-.543 2.45 2.45 0 0 0 .543-1.537v-4.45h1.796zm6.877-6.07a1.69 1.69 0 0 0-.939-.23c-.543 0-.94.23-1.33.69s-.543 1.085-.543 1.92v3.69h-1.798V23.19h1.798v1.613c.148-.493.416-.942.78-1.306.34-.306.78-.47 1.237-.46.243-.003.484.05.703.154zm7.97 2.69h-5.39c0 .69.235 1.306.703 1.69.39.383 1.016.615 1.798.615a3.73 3.73 0 0 0 2.351-.768v1.383q-1.063.696-2.82.696a3.68 3.68 0 0 1-2.734-1.085c-.703-.69-1.016-1.69-1.016-2.996a4.1 4.1 0 0 1 1.085-2.921c.7-.763 1.7-1.183 2.734-1.154 1.085 0 1.875.307 2.5.998s.86 1.613.86 2.84zm-1.72-1.23c0-.615-.156-1.152-.468-1.46-.303-.374-.77-.577-1.25-.543a1.73 1.73 0 0 0-1.329.543c-.39.383-.543.845-.626 1.46z" fill-rule="nonzero"/><path d="M24.456 4.633l-5.827 11.736 10.262 11.89-19.04 2.162 29.546.31zM23.306 0L9.93 11.195 0 27.95l8.454-.847z"/></g></symbol></svg>